HIERARCHY
ROOT Hips
{
    OFFSET   0.000000   0.000000   0.000000
    CHANNELS 6 Xposition Yposition Zposition Zrotation Xrotation Yrotation
    JOINT Chest
    {
        OFFSET   0.000000   8.007230   0.000000
        CHANNELS 3 Zrotation Xrotation Yrotation
        JOINT Chest2
        {
            OFFSET   0.000000  22.077100   0.000000
            CHANNELS 3 Zrotation Xrotation Yrotation
            JOINT Neck
            {
                OFFSET   0.000000  23.255100   0.000000
                CHANNELS 3 Zrotation Xrotation Yrotation
                JOINT Head
                {
                    OFFSET   0.000000  14.370100   1.956600
                    CHANNELS 3 Zrotation Xrotation Yrotation
                    End Site
                    {
                        OFFSET   0.000000  19.566000   0.000000
                    }
                }
            }
            JOINT LeftCollar
            {
                OFFSET   3.911900  19.017000  -0.467063
                CHANNELS 3 Zrotation Xrotation Yrotation
                JOINT LeftShoulder
                {
                    OFFSET  10.383700   0.000000   0.000000
                    CHANNELS 3 Zrotation Xrotation Yrotation
                    JOINT LeftElbow
                    {
                        OFFSET  26.662100   0.001193   0.000980
                        CHANNELS 3 Zrotation Xrotation Yrotation
                        JOINT LeftWrist
                        {
                            OFFSET  28.869000  -0.000059  -0.000082
                            CHANNELS 3 Zrotation Xrotation Yrotation
                            JOINT LeftFinger0
                            {
                                OFFSET   2.044650  -2.323450   3.252850
                                CHANNELS 3 Zrotation Xrotation Yrotation
                                JOINT LeftFinger01
                                {
                                    OFFSET   3.088130   0.000000   0.000000
                                    CHANNELS 3 Zrotation Xrotation Yrotation
                                    JOINT LeftFinger02
                                    {
                                        OFFSET   2.639460   0.000000   0.000000
                                        CHANNELS 3 Zrotation Xrotation Yrotation
                                        End Site
                                        {
                                            OFFSET   2.582190   0.000000   0.000000
                                        }
                                    }
                                }
                            }
                            JOINT LeftFinger1
                            {
                                OFFSET   8.364480   0.000000   3.252850
                                CHANNELS 3 Zrotation Xrotation Yrotation
                                JOINT LeftFinger11
                                {
                                    OFFSET   4.646930   0.000000   0.000000
                                    CHANNELS 3 Zrotation Xrotation Yrotation
                                    JOINT LeftFinger12
                                    {
                                        OFFSET   2.323470   0.000000   0.000000
                                        CHANNELS 3 Zrotation Xrotation Yrotation
                                        End Site
                                        {
                                            OFFSET   2.273050   0.000000   0.000000
                                        }
                                    }
                                }
                            }
                            JOINT LeftFinger2
                            {
                                OFFSET   8.364490   0.000016   1.078090
                                CHANNELS 3 Zrotation Xrotation Yrotation
                                JOINT LeftFinger21
                                {
                                    OFFSET   5.111610   0.000000   0.000000
                                    CHANNELS 3 Zrotation Xrotation Yrotation
                                    JOINT LeftFinger22
                                    {
                                        OFFSET   2.788150   0.000016   0.000000
                                        CHANNELS 3 Zrotation Xrotation Yrotation
                                        End Site
                                        {
                                            OFFSET   2.727660   0.000000   0.000000
                                        }
                                    }
                                }
                            }
                            JOINT LeftFinger3
                            {
                                OFFSET   7.899780   0.000015  -1.078090
                                CHANNELS 3 Zrotation Xrotation Yrotation
                                JOINT LeftFinger31
                                {
                                    OFFSET   4.646930   0.000000   0.000000
                                    CHANNELS 3 Zrotation Xrotation Yrotation
                                    JOINT LeftFinger32
                                    {
                                        OFFSET   2.323470   0.000000   0.000000
                                        CHANNELS 3 Zrotation Xrotation Yrotation
                                        End Site
                                        {
                                            OFFSET   2.273050   0.000000   0.000000
                                        }
                                    }
                                }
                            }
                            JOINT LeftFinger4
                            {
                                OFFSET   7.435090   0.000000  -3.252850
                                CHANNELS 3 Zrotation Xrotation Yrotation
                                JOINT LeftFinger41
                                {
                                    OFFSET   3.717550   0.000000   0.000000
                                    CHANNELS 3 Zrotation Xrotation Yrotation
                                    JOINT LeftFinger42
                                    {
                                        OFFSET   1.858770   0.000000   0.000000
                                        CHANNELS 3 Zrotation Xrotation Yrotation
                                        End Site
                                        {
                                            OFFSET   1.818440   0.000000   0.000000
                                        }
                                    }
                                }
                            }
                        }
                    }
                }
            }
            JOINT RightCollar
            {
                OFFSET  -3.911910  19.017000  -0.467062
                CHANNELS 3 Zrotation Xrotation Yrotation
                JOINT RightShoulder
                {
                    OFFSET -10.383700   0.000014   0.000000
                    CHANNELS 3 Zrotation Xrotation Yrotation
                    JOINT RightElbow
                    {
                        OFFSET -26.662100   0.001225   0.001091
                        CHANNELS 3 Zrotation Xrotation Yrotation
                        JOINT RightWrist
                        {
                            OFFSET -28.869000  -0.000020  -0.000085
                            CHANNELS 3 Zrotation Xrotation Yrotation
                            JOINT RightFinger0
                            {
                                OFFSET  -2.044650  -2.323490   3.252850
                                CHANNELS 3 Zrotation Xrotation Yrotation
                                JOINT RightFinger01
                                {
                                    OFFSET  -3.088130   0.000000   0.000000
                                    CHANNELS 3 Zrotation Xrotation Yrotation
                                    JOINT RightFinger02
                                    {
                                        OFFSET  -2.639460   0.000000   0.000000
                                        CHANNELS 3 Zrotation Xrotation Yrotation
                                        End Site
                                        {
                                            OFFSET  -2.582190   0.000000   0.000000
                                        }
                                    }
                                }
                            }
                            JOINT RightFinger1
                            {
                                OFFSET  -8.364480   0.000000   3.252850
                                CHANNELS 3 Zrotation Xrotation Yrotation
                                JOINT RightFinger11
                                {
                                    OFFSET  -4.646930   0.000000   0.000000
                                    CHANNELS 3 Zrotation Xrotation Yrotation
                                    JOINT RightFinger12
                                    {
                                        OFFSET  -2.323470   0.000000   0.000000
                                        CHANNELS 3 Zrotation Xrotation Yrotation
                                        End Site
                                        {
                                            OFFSET  -2.273050   0.000000   0.000000
                                        }
                                    }
                                }
                            }
                            JOINT RightFinger2
                            {
                                OFFSET  -8.364480   0.000000   1.078090
                                CHANNELS 3 Zrotation Xrotation Yrotation
                                JOINT RightFinger21
                                {
                                    OFFSET  -5.111620   0.000000   0.000000
                                    CHANNELS 3 Zrotation Xrotation Yrotation
                                    JOINT RightFinger22
                                    {
                                        OFFSET  -2.788160   0.000000   0.000000
                                        CHANNELS 3 Zrotation Xrotation Yrotation
                                        End Site
                                        {
                                            OFFSET  -2.727660   0.000000   0.000000
                                        }
                                    }
                                }
                            }
                            JOINT RightFinger3
                            {
                                OFFSET  -7.899780   0.000000  -1.078090
                                CHANNELS 3 Zrotation Xrotation Yrotation
                                JOINT RightFinger31
                                {
                                    OFFSET  -4.646930   0.000000   0.000000
                                    CHANNELS 3 Zrotation Xrotation Yrotation
                                    JOINT RightFinger32
                                    {
                                        OFFSET  -2.323470   0.000000   0.000000
                                        CHANNELS 3 Zrotation Xrotation Yrotation
                                        End Site
                                        {
                                            OFFSET  -2.273050   0.000000   0.000000
                                        }
                                    }
                                }
                            }
                            JOINT RightFinger4
                            {
                                OFFSET  -7.435090   0.000000  -3.252850
                                CHANNELS 3 Zrotation Xrotation Yrotation
                                JOINT RightFinger41
                                {
                                    OFFSET  -3.717550   0.000000   0.000000
                                    CHANNELS 3 Zrotation Xrotation Yrotation
                                    JOINT RightFinger42
                                    {
                                        OFFSET  -1.858760   0.000000   0.000000
                                        CHANNELS 3 Zrotation Xrotation Yrotation
                                        End Site
                                        {
                                            OFFSET  -1.818440   0.000000   0.000000
                                        }
                                    }
                                }
                            }
                        }
                    }
                }
            }
        }
    }
    JOINT LeftHip
    {
        OFFSET   9.783030   0.000000   0.000000
        CHANNELS 3 Zrotation Xrotation Yrotation
        JOINT LeftKnee
        {
            OFFSET   0.000063 -41.789100   0.000608
            CHANNELS 3 Zrotation Xrotation Yrotation
            JOINT LeftAnkle
            {
                OFFSET   0.000048 -41.133200  -0.000184
                CHANNELS 3 Zrotation Xrotation Yrotation
                JOINT LeftToe
                {
                    OFFSET   0.000000  -6.358960  14.674500
                    CHANNELS 3 Zrotation Xrotation Yrotation
                    End Site
                    {
                        OFFSET   0.000000   0.000000   3.913200
                    }
                }
            }
        }
    }
    JOINT RightHip
    {
        OFFSET  -9.783030   0.000000   0.000000
        CHANNELS 3 Zrotation Xrotation Yrotation
        JOINT RightKnee
        {
            OFFSET   0.000071 -41.789100   0.001239
            CHANNELS 3 Zrotation Xrotation Yrotation
            JOINT RightAnkle
            {
                OFFSET   0.000037 -41.133200  -0.000166
                CHANNELS 3 Zrotation Xrotation Yrotation
                JOINT RightToe
                {
                    OFFSET   0.000000  -6.358960  14.674500
                    CHANNELS 3 Zrotation Xrotation Yrotation
                    End Site
                    {
                        OFFSET   0.000000   0.000000   3.913200
                    }
                }
            }
        }
    }
}
MOTION
Frames: 4
Frame Time:   0.016667
  5.125920  89.196800  -0.377483  -3.573120 -22.893700   0.672193   1.487390  14.038200   4.159020   1.976240  28.146200   8.323950   0.918386  -1.724580   0.025068   1.512570  -3.494520  -4.649300  -5.675750  -8.164990   0.798591 -65.165600  35.277300 -14.056400  -2.050980  -7.227720 -13.765200  15.254000  -7.684390   5.255530  35.827300  30.112500 -60.315600 -35.112600   0.001595   0.001215 -12.556300   0.000463  -0.001546 -30.956600   4.929310  -8.151740 -25.615800   0.003797  -0.002284 -17.931000   0.005472  -0.001821 -28.685700   2.179590  -3.976180 -40.600400   0.003774  -0.001525 -27.039800   0.000687   0.002284 -28.559500   1.602330  -2.940850 -37.409400  -0.000578   0.003348 -24.914700  -0.000402   0.003077 -32.454900   0.791070  -1.243320 -48.695200   0.002704   0.000698 -32.431000   0.000634  -0.002904  11.632800  -5.107690  14.278400  53.856500  16.432800  28.703500 -19.816000  -8.740750  34.816900 -16.535700 -47.348400   4.018760 -50.858200  26.615400  44.609600  -7.845260  -0.000125  -0.000000  -8.922620   0.001181   0.001403  17.449100   3.402410  10.691900  14.537200   0.001814   0.000000  10.176100   0.001402  -0.001414  19.177700   0.748755   2.152080  19.192100   0.006393  -0.000142  12.781900   0.005386  -0.002696  14.085700  -1.545550  -6.132650  14.168700   0.005461   0.002916   9.436360   0.005098   0.004515  19.065500  -2.073710  -5.975290  28.761000   0.002845   0.003807  19.154800   0.003170   0.002984   0.872446  24.628000   6.051450  -0.438020  -0.006701   4.580030  -0.074233  -2.809230  -2.264730  -0.000000   0.000000   0.000000   2.642050  21.284400  -0.585693  -3.041950  10.459000 -12.310900   3.520050  -8.046980   0.113345  -0.000000   0.000000   0.000000
  5.137500  89.203900  -0.440373  -3.706740 -22.719900   0.390546   1.470110  13.971100   4.157280   1.946150  28.011400   8.323990   0.953028  -1.692450   0.025385   1.567540  -3.428960  -4.602730  -5.679170  -8.149950   0.826702 -65.460900  34.828500 -13.534600  -2.153350  -7.190600 -13.595600  15.181400  -7.554000   5.226250  35.630800  29.781200 -60.194800 -35.125100   0.001669   0.001246 -12.562600   0.000497  -0.001576 -31.033900   4.952980  -8.164020 -25.679600   0.003781  -0.002268 -17.975700   0.005517  -0.001782 -28.688000   2.155250  -3.931560 -40.594900   0.003733  -0.001524 -27.036200   0.000658   0.002252 -28.564700   1.595270  -2.926950 -37.514500  -0.000552   0.003348 -24.984600  -0.000356   0.003117 -32.534000   0.775015  -1.214630 -48.813300   0.002727   0.000720 -32.509700   0.000630  -0.002855  11.575900  -5.154870  14.245200  53.859700  16.535300  28.826300 -19.942700  -8.865380  34.893200 -16.500700 -47.595700   4.080840 -50.836500  26.562900  44.492600  -7.779380  -0.000379   0.000033  -8.889680   0.000631   0.001585  17.551700   3.388510  10.578100  14.616800   0.002149   0.000500  10.231900   0.001723  -0.001370  19.385800   0.708580   2.010720  19.398100   0.006957  -0.000180  12.919100   0.005869  -0.002772  14.350700  -1.602640  -6.261750  14.440000   0.005888   0.002775   9.617030   0.005485   0.004679  19.284100  -2.137940  -6.099010  29.100500   0.002408   0.003532  19.380900   0.002928   0.003005   0.878872  24.437000   6.031540  -0.453087   0.050894   4.668580  -0.103245  -2.845590  -2.091320  -0.000000   0.000000  -0.000000   2.656730  21.060900  -0.627087  -3.074680  10.438500 -12.193500   3.507370  -7.966590   0.298420   0.000000   0.000000   0.000000
  5.139470  89.209800  -0.493462  -3.850790 -22.540900   0.079996   1.456130  13.900800   4.152350   1.923240  27.869500   8.314490   0.964087  -1.668500   0.025680   1.587520  -3.380090  -4.524910  -5.685960  -8.124930   0.865613 -65.750100  34.359900 -13.003500  -2.267050  -7.181270 -13.520400  15.044900  -7.535730   5.191770  35.550900  29.597300 -60.175100 -35.126900   0.001742   0.001273 -12.563500   0.000529  -0.001606 -31.065900   4.984360  -8.206260 -25.710200   0.003763  -0.002252 -17.997100   0.005562  -0.001744 -28.689000   2.130910  -3.886950 -40.589300   0.003693  -0.001523 -27.032400   0.000631   0.002222 -28.567400   1.588220  -2.913050 -37.576500  -0.000525   0.003349 -25.025900  -0.000309   0.003157 -32.585800   0.764474  -1.195830 -48.890700   0.002750   0.000743 -32.561200   0.000626  -0.002807  11.532200  -5.199110  14.241000  53.610100  16.872200  29.071500 -20.109900  -9.284620  34.948900 -16.450700 -48.021900   4.124880 -50.830100  26.537300  44.419800  -7.643750  -0.000641   0.000067  -8.821870   0.000083   0.001756  17.718700   3.379870  10.457700  14.750200   0.002484   0.001093  10.325200   0.002038  -0.001297  19.725000   0.668395   1.869350  19.735800   0.007528  -0.000185  13.144000   0.006358  -0.002854  14.688000  -1.684600  -6.390950  14.781900   0.006316   0.002704   9.844720   0.005872   0.004850  19.609000  -2.228530  -6.222870  29.595000   0.001991   0.003286  19.710300   0.002720   0.003019   0.897915  24.257000   6.009550  -0.475165   0.108471   4.779750  -0.134239  -2.900000  -1.914310  -0.000000   0.000000  -0.000000   2.673360  20.859900  -0.641521  -3.114440  10.379100 -12.053900   3.497220  -7.874920   0.462160  -0.000000   0.000000   0.000000
  5.134050  89.215200  -0.534745  -3.999330 -22.366100  -0.250348   1.448840  13.831400   4.142220   1.915630  27.730400   8.294210   0.961845  -1.658650   0.025971   1.585040  -3.360120  -4.461600  -5.694660  -8.082730   0.878262 -66.047500  33.830900 -12.478400  -2.394060  -7.173710 -13.512900  14.840400  -7.579700   5.141030  35.606800  29.656300 -60.306700 -35.077900   0.001808   0.001331 -12.539000   0.000568  -0.001638 -31.028500   5.028380  -8.288590 -25.686300   0.003746  -0.002236 -17.980400   0.005605  -0.001704 -28.683400   2.131400  -3.888050 -40.458000   0.003651  -0.001525 -26.944900   0.000604   0.002196 -28.561800   1.606960  -2.947860 -37.521200  -0.000495   0.003349 -24.989100  -0.000259   0.003196 -32.558000   0.770060  -1.205900 -48.849200   0.002771   0.000765 -32.533600   0.000622  -0.002761  11.520100  -5.256520  14.242400  53.019500  17.580600  29.411800 -20.136700 -10.204800  34.791300 -16.329100 -48.484700   4.145740 -50.916600  26.695100  44.669000  -7.476070  -0.000935   0.000010  -8.738040  -0.000424   0.001937  17.848800   3.391630  10.450100  14.858100   0.002829   0.001672  10.400700   0.002342  -0.001224  19.992000   0.674246   1.875800  20.003200   0.008097   0.000722  13.322100   0.006844  -0.002941  14.974000  -1.726840  -6.387490  15.069900   0.006741   0.002705  10.036500   0.006267   0.005029  19.879900  -2.269410  -6.218860  30.004000   0.001594   0.003051  19.982700   0.002538   0.003026   0.926496  24.139600   5.985600  -0.503830   0.060256   4.898320  -0.162212  -2.921230  -1.724960   0.000000   0.000000  -0.000000   2.704370  20.684800  -0.630671  -3.158990  10.284800 -11.883700   3.503120  -7.778010   0.592379   0.000000   0.000000   0.000000
